<svg width="96" height="96" viewBox="0 0 96 96" fill="none" xmlns="http://www.w3.org/2000/svg">
<path d="M37.7007 54.0495C36.9131 54.8239 36.9024 56.0902 37.6769 56.8778C38.4513 57.6654 39.7176 57.6761 40.5052 56.9016L37.7007 54.0495ZM70.2735 14.2889L68.8713 12.8629L68.3081 13.4166L68.2752 14.2058L70.2735 14.2889ZM82.4772 2.28911L83.8795 3.71519V3.71519L82.4772 2.28911ZM84.1788 3.0143L86.1787 3.03315V3.03315L84.1788 3.0143ZM84.1014 11.2289L82.1015 11.21L82.0826 13.2099L84.0824 13.2288L84.1014 11.2289ZM93.0068 11.3132L93.0257 9.31325L93.0068 11.3132ZM93.6982 13.0316L95.1005 14.4577V14.4577L93.6982 13.0316ZM81.1374 25.3826L81.1185 27.3825L81.9481 27.3903L82.5397 26.8087L81.1374 25.3826ZM68.4139 23.8494L37.7007 54.0495L40.5052 56.9016L71.2184 26.7015L68.4139 23.8494ZM71.8144 25.3586L72.2718 14.3721L68.2752 14.2058L67.8179 25.1923L71.8144 25.3586ZM71.6758 15.715L83.8795 3.71519L81.075 0.863039L68.8713 12.8629L71.6758 15.715ZM82.1789 2.99545L82.1015 11.21L86.1013 11.2477L86.1787 3.03315L82.1789 2.99545ZM84.0824 13.2288L92.9879 13.3131L93.0257 9.31325L84.1203 9.22899L84.0824 13.2288ZM92.296 11.6055L79.7352 23.9565L82.5397 26.8087L95.1005 14.4577L92.296 11.6055ZM81.1563 23.3827L69.8351 23.2755L69.7972 27.2754L81.1185 27.3825L81.1563 23.3827ZM92.9879 13.3131C92.0903 13.3046 91.6685 12.2225 92.296 11.6055L95.1005 14.4577C97.0006 12.5893 95.7064 9.33862 93.0257 9.31325L92.9879 13.3131ZM83.8795 3.71519C83.2384 4.34557 82.1706 3.87608 82.1789 2.99546L86.1787 3.03315C86.2038 0.365887 82.9887 -1.01875 81.075 0.863039L83.8795 3.71519ZM39.5267 96C61.3605 96 79.0534 78.2651 79.0534 56.3967H75.0534C75.0534 76.0637 59.1437 92 39.5267 92V96ZM0 56.3967C0 78.2651 17.6929 96 39.5267 96V92C19.9097 92 4 76.0637 4 56.3967H0ZM39.5267 16.7934C17.6929 16.7934 0 34.5282 0 56.3967H4C4 36.7297 19.9097 20.7934 39.5267 20.7934V16.7934ZM39.5267 20.7934C59.1437 20.7934 75.0534 36.7297 75.0534 56.3967H79.0534C79.0534 34.5282 61.3605 16.7934 39.5267 16.7934V20.7934ZM39.5267 83.9669C54.7284 83.9669 67.0448 71.6195 67.0448 56.3967H63.0448C63.0448 69.418 52.5116 79.9669 39.5267 79.9669V83.9669ZM12.0085 56.3967C12.0085 71.6195 24.325 83.9669 39.5267 83.9669V79.9669C26.5418 79.9669 16.0085 69.418 16.0085 56.3967H12.0085ZM39.5267 28.8264C24.325 28.8264 12.0085 41.1739 12.0085 56.3967H16.0085C16.0085 43.3753 26.5418 32.8264 39.5267 32.8264V28.8264ZM39.5267 32.8264C52.5116 32.8264 63.0448 43.3753 63.0448 56.3967H67.0448C67.0448 41.1739 54.7284 28.8264 39.5267 28.8264V32.8264ZM39.0263 70.9311C46.7669 70.9311 53.0349 64.6445 53.0349 56.8981H49.0349C49.0349 62.443 44.5501 66.9311 39.0263 66.9311V70.9311ZM25.0178 56.8981C25.0178 64.6445 31.2858 70.9311 39.0263 70.9311V66.9311C33.5026 66.9311 29.0178 62.443 29.0178 56.8981H25.0178ZM39.0263 42.865C31.2858 42.865 25.0178 49.1517 25.0178 56.8981H29.0178C29.0178 51.3531 33.5026 46.865 39.0263 46.865V42.865ZM39.0263 46.865C44.5501 46.865 49.0349 51.3531 49.0349 56.8981H53.0349C53.0349 49.1517 46.7669 42.865 39.0263 42.865V46.865Z" fill="url(#gradient)"/>
<defs>
<linearGradient id="gradient" x1="61.7641" y1="16.0751" x2="14.6317" y2="45.89" gradientUnits="userSpaceOnUse">
<stop stop-color="#730D12"/>
<stop offset="1" stop-color="#D8272F"/>
</linearGradient>
</defs>
</svg>
