<svg width="624" height="941" viewBox="0 0 624 941" fill="none" xmlns="http://www.w3.org/2000/svg">
<g clip-path="url(#clip0)">
<path d="M448.596 50.5783L535.329 103.582V204.77L448.596 257.774L361.863 204.77M448.596 50.5783L361.863 103.582M448.596 50.5783L448.595 -50.6101L361.862 -103.614L275.13 -50.6101M361.863 204.77V103.582M361.863 204.77L275.13 257.774L188.397 204.77V103.582M361.863 103.582L275.13 50.5783M448.595 359.765V258.577L361.862 205.573L275.129 258.577M448.595 359.765L361.862 412.769M448.595 359.765L535.329 412.769V513.957L448.596 566.961M361.862 412.769L275.129 359.765M361.862 412.769L361.863 513.957M275.129 359.765V258.577M275.129 359.765L188.397 412.769M275.129 258.577L188.397 205.573L101.664 258.577V359.765L188.397 412.769M275.13 50.5783L188.397 103.582M275.13 50.5783L275.13 -50.6101M188.397 103.582L101.664 50.5783V-50.6101L188.397 -103.614L275.13 -50.6101M361.863 513.957L275.13 566.961M361.863 513.957L448.596 566.961M275.13 566.961L188.397 513.957M275.13 566.961L275.13 668.149M188.397 513.957V412.769M188.397 513.957L101.664 566.961V668.149L188.397 721.153L275.13 668.149M275.13 668.149L361.863 721.153L448.596 668.149L448.596 566.961M362.156 720.84V822.029L275.423 875.032L188.69 822.029V720.84L275.423 667.837L362.156 720.84ZM535.473 720.84V822.029L448.74 875.032L362.007 822.029V720.84L448.74 667.837L535.473 720.84Z" stroke="url(#paint0_linear)" stroke-width="4.01541"/>
<path d="M448.594 156.613H450.602V155.487L449.641 154.9L448.594 156.613ZM448.594 257.802L449.641 259.515L450.602 258.927V257.802H448.594ZM361.861 310.805L360.814 312.518L361.861 313.158L362.908 312.518L361.861 310.805ZM361.861 311.608H363.869V310.482L362.908 309.895L361.861 311.608ZM275.128 258.605L276.175 256.891L275.128 256.252L274.081 256.891L275.128 258.605ZM101.663 257.802H99.6551V258.927L100.616 259.515L101.663 257.802ZM101.663 -50.5823L102.71 -52.2954L101.663 -52.9352L100.616 -52.2954L101.663 -50.5823ZM14.9297 103.61H12.922V104.736L13.8828 105.323L14.9297 103.61ZM361.861 2.42117L363.869 2.42117V1.29518L362.908 0.708027L361.861 2.42117ZM275.128 -50.5823L276.175 -52.2954L275.128 -52.9352L274.081 -52.2954L275.128 -50.5823ZM101.663 258.605L102.71 256.891L101.663 256.252L100.616 256.891L101.663 258.605ZM14.9297 412.797H12.922V413.923L13.8828 414.51L14.9297 412.797ZM14.9297 619.992L13.8828 618.279L12.922 618.866V619.992H14.9297ZM448.594 465.8H450.602V464.674L449.641 464.087L448.594 465.8ZM448.594 566.988L449.641 568.702L450.602 568.114V566.988H448.594ZM275.421 773.872H277.429V772.746L276.468 772.158L275.421 773.872ZM275.421 875.06L276.468 876.773L277.429 876.186V875.06H275.421ZM188.688 720.868L189.735 719.155L188.688 718.515L187.641 719.155L188.688 720.868ZM188.688 928.064L187.641 929.777L188.688 930.416L189.735 929.777L188.688 928.064ZM101.955 875.06H99.9477V876.186L100.908 876.773L101.955 875.06ZM101.955 773.872L100.908 772.158L99.9477 772.746V773.872H101.955ZM448.739 773.872H450.746V772.746L449.785 772.158L448.739 773.872ZM448.739 875.06L449.785 876.773L450.746 876.186V875.06H448.739ZM362.006 720.868L363.053 719.155L362.006 718.515L360.959 719.155L362.006 720.868ZM362.006 928.064L360.959 929.777L362.006 930.416L363.053 929.777L362.006 928.064ZM275.273 875.06H273.265V876.186L274.226 876.773L275.273 875.06ZM275.273 773.872L274.226 772.158L273.265 772.746V773.872H275.273ZM361.862 721.18L362.909 722.894L363.87 722.306V721.18L361.862 721.18ZM446.586 156.613V257.802H450.602V156.613H446.586ZM449.641 154.9L362.908 101.896L360.814 105.323L447.547 158.326L449.641 154.9ZM447.547 256.088L360.814 309.092L362.908 312.518L449.641 259.515L447.547 256.088ZM362.908 309.092L276.175 256.088L274.081 259.515L360.814 312.518L362.908 309.092ZM277.136 257.802V156.613H273.121V257.802H277.136ZM276.175 158.326L362.908 105.323L360.814 101.896L274.081 154.9L276.175 158.326ZM359.853 311.608V412.797H363.869V311.608H359.853ZM362.908 309.895L276.175 256.891L274.081 260.318L360.814 313.321L362.908 309.895ZM360.814 411.083L274.081 464.087L276.175 467.513L362.908 414.51L360.814 411.083ZM276.175 464.087L189.442 411.083L187.348 414.51L274.081 467.513L276.175 464.087ZM276.175 154.9L189.443 101.896L187.349 105.323L274.081 158.326L276.175 154.9ZM359.853 2.42117L359.853 103.61H363.869L363.869 2.42117L359.853 2.42117ZM362.908 0.708027L276.175 -52.2954L274.081 -48.8692L360.814 4.13431L362.908 0.708027ZM273.12 465.8L273.121 566.988H277.136L277.136 465.8L273.12 465.8ZM274.082 565.275L187.349 618.279L189.443 621.705L276.176 568.702L274.082 565.275ZM189.443 618.279L102.71 565.275L100.616 568.702L187.349 621.705L189.443 618.279ZM15.9766 621.705L102.71 568.702L100.616 565.275L13.8828 618.279L15.9766 621.705ZM446.586 465.8V566.988H450.602V465.8H446.586ZM449.641 464.087L362.908 411.083L360.814 414.51L447.547 467.513L449.641 464.087ZM447.547 565.275L360.814 618.279L362.908 621.705L449.641 568.702L447.547 565.275ZM362.908 618.279L276.176 565.275L274.082 568.702L360.814 621.705L362.908 618.279ZM273.414 773.872V875.06H277.429V773.872H273.414ZM276.468 772.158L189.735 719.155L187.641 722.581L274.374 775.585L276.468 772.158ZM274.374 873.347L187.641 926.35L189.735 929.777L276.468 876.773L274.374 873.347ZM189.735 926.35L103.002 873.347L100.908 876.773L187.641 929.777L189.735 926.35ZM103.963 875.06V773.872H99.9477V875.06H103.963ZM103.002 775.585L189.735 722.581L187.641 719.155L100.908 772.158L103.002 775.585ZM446.731 773.872V875.06H450.746V773.872H446.731ZM449.785 772.158L363.053 719.155L360.959 722.581L447.692 775.585L449.785 772.158ZM447.692 873.347L360.959 926.35L363.053 929.777L449.785 876.773L447.692 873.347ZM363.053 926.35L276.32 873.347L274.226 876.773L360.959 929.777L363.053 926.35ZM277.28 875.06V773.872H273.265V875.06H277.28ZM276.32 775.585L363.053 722.581L360.959 719.155L274.226 772.158L276.32 775.585ZM359.853 619.992L359.854 721.18L363.87 721.18L363.869 619.992H359.853ZM360.815 719.467L274.082 772.471L276.176 775.897L362.909 722.894L360.815 719.467ZM186.388 619.998L186.71 720.875L190.726 720.862L190.404 619.986L186.388 619.998ZM16.9374 103.61V15.0711H12.922V103.61H16.9374ZM29.906 -4.37813L102.71 -48.8692L100.616 -52.2954L27.8122 -7.80441L29.906 -4.37813ZM176.354 -7.29042L102.71 -52.2954L100.616 -48.8692L174.26 -3.86414L176.354 -7.29042ZM186.388 15.0711L186.388 103.61H190.404L190.403 15.0711L186.388 15.0711ZM203.994 -4.75806L276.175 -48.8692L274.081 -52.2954L201.9 -8.18433L203.994 -4.75806ZM116.832 149.696L189.443 105.323L187.349 101.896L114.738 146.27L116.832 149.696ZM103.671 257.802V170.458H99.6551V257.802H103.671ZM90.1184 147.205L15.9766 101.896L13.8828 105.323L88.0246 150.632L90.1184 147.205ZM16.9374 412.797V323.086H12.922V412.797H16.9374ZM30.2878 304.575L102.71 260.318L100.616 256.891L28.194 301.149L30.2878 304.575ZM274.081 256.088L202.033 300.118L204.127 303.544L276.175 259.515L274.081 256.088ZM176.248 301.029L102.71 256.088L100.616 259.515L174.155 304.455L176.248 301.029ZM190.403 412.797V323.086H186.387V412.797H190.403ZM116.524 459.071L189.442 414.51L187.348 411.083L114.431 455.645L116.524 459.071ZM90.3934 456.56L15.9766 411.083L13.8828 414.51L88.2996 459.987L90.3934 456.56ZM103.671 566.988V480.363H99.6551V566.988H103.671ZM16.9374 702.689V619.992H12.922V702.689H16.9374ZM102.71 772.471L27.1591 726.301L25.0652 729.727L100.616 775.897L102.71 772.471ZM176.015 301.689L102.71 256.891L100.616 260.318L173.921 305.116L176.015 301.689ZM204.387 304.188L276.175 260.318L274.081 256.891L202.293 300.762L204.387 304.188Z" fill="url(#paint1_linear)"/>
<circle cx="15.0711" cy="-4.76837e-06" r="15.0711" fill="white" fill-opacity="0.13"/>
<circle cx="102.673" cy="155.42" r="15.0711" fill="white" fill-opacity="0.13"/>
<circle cx="189.331" cy="-4.76837e-06" r="15.0711" fill="white" fill-opacity="0.13"/>
<circle cx="102.673" cy="465.319" r="15.0711" fill="white" fill-opacity="0.13"/>
<circle cx="15.0711" cy="308.015" r="15.0711" fill="white" fill-opacity="0.13"/>
<circle cx="189.331" cy="308.015" r="15.0711" fill="white" fill-opacity="0.13"/>
<circle cx="15.0711" cy="717.76" r="15.0711" fill="white" fill-opacity="0.13"/>
<path d="M623.895 669.208V568.106L537.237 515.148L450.578 568.106V666.801L537.708 719.549L623.895 669.208Z" fill="url(#paint2_linear)"/>
<path d="M446.575 256.679V157.728L361.847 105.968L277.119 157.728L277.12 256.679L361.847 308.486L446.575 256.679Z" fill="url(#paint3_linear)"/>
<path d="M446.952 874.97V775.124L362.177 723.317L277.402 775.124V876.383L364.532 929.864L446.952 874.97Z" fill="url(#paint4_linear)"/>
<path d="M273.163 565.825V466.921L188.388 415.161L103.576 466.874V565.306L188.388 617.631L273.163 565.825Z" fill="url(#paint5_linear)"/>
</g>
<defs>
<linearGradient id="paint0_linear" x1="318.678" y1="164.369" x2="318.678" y2="875.064" gradientUnits="userSpaceOnUse">
<stop stop-color="white" stop-opacity="0.9"/>
<stop offset="0.930112" stop-color="#FEFBFB" stop-opacity="0"/>
</linearGradient>
<linearGradient id="paint1_linear" x1="231.834" y1="-50.5823" x2="231.576" y2="889.005" gradientUnits="userSpaceOnUse">
<stop offset="0.539801" stop-color="white" stop-opacity="0.26"/>
<stop offset="1" stop-color="white" stop-opacity="0"/>
</linearGradient>
<linearGradient id="paint2_linear" x1="459.527" y1="572.136" x2="571.618" y2="700.711" gradientUnits="userSpaceOnUse">
<stop stop-color="white" stop-opacity="0.08"/>
<stop offset="1" stop-color="white" stop-opacity="0"/>
</linearGradient>
<linearGradient id="paint3_linear" x1="449.307" y1="172.375" x2="240.667" y2="205.343" gradientUnits="userSpaceOnUse">
<stop stop-color="white" stop-opacity="0.08"/>
<stop offset="1" stop-color="white" stop-opacity="0"/>
</linearGradient>
<linearGradient id="paint4_linear" x1="364.532" y1="722.846" x2="364.532" y2="886.273" gradientUnits="userSpaceOnUse">
<stop stop-color="white" stop-opacity="0.08"/>
<stop offset="1" stop-color="white" stop-opacity="0"/>
</linearGradient>
<linearGradient id="paint5_linear" x1="251.932" y1="593.094" x2="99.3374" y2="472.996" gradientUnits="userSpaceOnUse">
<stop stop-color="white" stop-opacity="0.08"/>
<stop offset="1" stop-color="white" stop-opacity="0"/>
</linearGradient>
<clipPath id="clip0">
<rect width="623.566" height="941" fill="white"/>
</clipPath>
</defs>
</svg>
