<svg width="87" height="88" viewBox="0 0 87 88" fill="none" xmlns="http://www.w3.org/2000/svg">
<path d="M2 85.7324H0V87.7324H2V85.7324ZM85 87.7324C86.1046 87.7324 87 86.837 87 85.7324C87 84.6279 86.1046 83.7324 85 83.7324V87.7324ZM7.70387 65.5723C6.97866 66.4054 7.06618 67.6687 7.89934 68.3939C8.73249 69.1191 9.9958 69.0316 10.721 68.1985L7.70387 65.5723ZM35.3755 36.8277L36.5476 35.2072L35.0668 34.1361L33.8669 35.5146L35.3755 36.8277ZM50.2613 47.5946L49.0892 49.2152L50.6665 50.356L51.8495 48.8102L50.2613 47.5946ZM73.2668 17.537L75.2631 17.4153L75.1169 15.0161L72.7842 15.5961L73.2668 17.537ZM56.5451 19.6337C55.4731 19.9002 54.8202 20.9852 55.0867 22.0571C55.3533 23.1291 56.4383 23.782 57.5102 23.5155L56.5451 19.6337ZM72.1727 32.4631C72.2398 33.5657 73.1881 34.405 74.2906 34.3378C75.3931 34.2706 76.2324 33.3224 76.1653 32.2198L72.1727 32.4631ZM4 2.73242C4 1.62785 3.10457 0.732422 2 0.732422C0.89543 0.732422 0 1.62785 0 2.73242H4ZM2 87.7324H85V83.7324H2V87.7324ZM10.721 68.1985L36.884 38.1408L33.8669 35.5146L7.70387 65.5723L10.721 68.1985ZM34.2034 38.4482L49.0892 49.2152L51.4335 45.9741L36.5476 35.2072L34.2034 38.4482ZM51.8495 48.8102L74.855 18.7525L71.6786 16.3214L48.6731 46.3791L51.8495 48.8102ZM72.7842 15.5961L56.5451 19.6337L57.5102 23.5155L73.7494 19.4779L72.7842 15.5961ZM71.2705 17.6586L72.1727 32.4631L76.1653 32.2198L75.2631 17.4153L71.2705 17.6586ZM4 85.7324V2.73242H0V85.7324H4Z" fill="url(#gradient)"/>
<defs>
<linearGradient id="gradient" x1="55.9176" y1="15.4306" x2="13.3959" y2="42.3289" gradientUnits="userSpaceOnUse">
<stop stop-color="#730D12"/>
<stop offset="1" stop-color="#D8272F"/>
</linearGradient>
</defs>
</svg>
