<svg width="492" height="174" viewBox="0 0 492 174" fill="none" xmlns="http://www.w3.org/2000/svg">
<path d="M151.189 84.663C151.189 56.9245 172.47 37.4463 201.496 37.4463C219.172 37.4463 233.104 43.8973 242.004 55.5396L222.783 72.7005C217.495 65.992 211.169 62.1228 203.048 62.1228C190.403 62.1228 181.886 70.8912 181.886 84.6978C181.886 98.5044 190.403 107.273 203.048 107.273C211.169 107.273 217.495 103.404 222.783 96.6951L242.004 113.849C233.125 125.429 219.207 131.873 201.496 131.873C172.47 131.873 151.189 112.395 151.189 84.663Z" fill="#9B1C22"/>
<path d="M320.432 102.36H271.399C273.487 107.781 278.358 110.613 285.588 110.613C292.039 110.613 295.651 108.936 300.3 105.456L315.519 120.808C308.685 128.289 298.748 132.158 284.691 132.158C258.761 132.158 241.99 116.549 241.99 95.526C241.99 74.1062 259.144 59.0192 281.977 59.0192C302.854 59.0192 320.808 71.6567 320.808 95.526C320.808 97.5858 320.564 100.293 320.432 102.36ZM270.898 88.4417H293.605C292.443 82.5057 288.184 79.0262 282.248 79.0262C276.187 79.0262 272.095 82.5057 270.898 88.4417Z" fill="#9B1C22"/>
<path d="M326.529 36.2493H355.757V132.283H326.529V36.2493Z" fill="#9B1C22"/>
<path d="M361.324 36.2493H390.552V132.283H361.324V36.2493Z" fill="#9B1C22"/>
<path d="M455.973 57.1263V61.1207C450.096 58.3543 443.679 56.9282 437.184 56.9453C414.546 56.9453 396.195 73.7165 396.195 94.4125C396.195 115.109 414.546 131.873 437.184 131.873C443.679 131.89 450.096 130.464 455.973 127.697V132.283H478.938V57.1263H455.973ZM436.829 106.535C430.489 106.535 425.346 101.086 425.346 94.3568C425.346 87.6275 430.489 82.1786 436.829 82.1786C443.168 82.1786 448.311 87.6344 448.311 94.3568C448.311 101.079 443.175 106.535 436.829 106.535Z" fill="#9B1C22"/>
<path d="M9.17774 49.0051V120.314C9.1766 121.111 9.38575 121.894 9.78407 122.584C10.1824 123.275 10.7558 123.848 11.4464 124.246L73.2004 159.896C73.8894 160.297 74.6721 160.508 75.469 160.508C76.2659 160.508 77.0486 160.297 77.7376 159.896L139.492 124.246C140.182 123.848 140.756 123.275 141.154 122.584C141.552 121.894 141.761 121.111 141.76 120.314V49.0051C141.761 48.2092 141.551 47.4271 141.153 46.738C140.755 46.0488 140.182 45.477 139.492 45.0803L77.7376 9.42244C77.0474 9.02557 76.2652 8.81671 75.469 8.81671C74.6728 8.81671 73.8906 9.02557 73.2004 9.42244L11.4464 45.0803C10.7563 45.477 10.1832 46.0488 9.78488 46.738C9.38655 47.4271 9.17712 48.2092 9.17774 49.0051Z" fill="#333132"/>
<path d="M75.4698 160.885C74.6071 160.884 73.7599 160.656 73.0133 160.224L11.2593 124.566C10.5127 124.133 9.8929 123.512 9.4618 122.765C9.03069 122.017 8.80343 121.17 8.80273 120.307V49.0051C8.80324 48.1432 9.03049 47.2966 9.46168 46.5503C9.89286 45.8039 10.5128 45.1842 11.2593 44.7532L73.0133 9.09539C73.7613 8.66756 74.6081 8.4425 75.4698 8.4425C76.3315 8.4425 77.1783 8.66756 77.9263 9.09539L139.68 44.7532C140.428 45.1838 141.049 45.8033 141.481 46.5496C141.913 47.2959 142.142 48.1427 142.144 49.0051V120.314C142.142 121.177 141.913 122.025 141.481 122.772C141.048 123.52 140.428 124.14 139.68 124.573L77.9402 160.224C77.1895 160.658 76.3372 160.886 75.4698 160.885ZM75.4698 9.1789C74.7371 9.17808 74.0171 9.37009 73.3821 9.73562L11.635 45.4004C11.0019 45.7659 10.4759 46.2912 10.1095 46.9238C9.74318 47.5564 9.54932 48.2741 9.54735 49.0051V120.314C9.54932 121.045 9.74318 121.763 10.1095 122.395C10.4759 123.028 11.0019 123.553 11.635 123.919L73.389 159.576C74.0238 159.943 74.7438 160.136 75.4767 160.136C76.2097 160.136 76.9297 159.943 77.5644 159.576L139.318 123.919C139.952 123.553 140.478 123.028 140.844 122.395C141.21 121.763 141.404 121.045 141.406 120.314V49.0051C141.404 48.2741 141.21 47.5564 140.844 46.9238C140.478 46.2912 139.952 45.7659 139.318 45.4004L77.5505 9.74258C76.9169 9.38065 76.1995 9.1911 75.4698 9.19282V9.1789Z" fill="#333132"/>
<path d="M77.008 145.679L91.8724 135.937C92.0792 135.803 92.248 135.618 92.3626 135.4C92.4772 135.182 92.5337 134.939 92.5267 134.692C92.5197 134.446 92.4495 134.206 92.3227 133.995C92.1959 133.784 92.0168 133.609 91.8028 133.487L87.0151 130.704C86.8022 130.585 86.5627 130.523 86.3192 130.523C86.0756 130.523 85.8362 130.585 85.6233 130.704L76.9524 135.575C76.7395 135.693 76.5 135.755 76.2565 135.755C76.013 135.755 75.7735 135.693 75.5606 135.575L63.5772 128.658C63.364 128.535 63.186 128.359 63.0605 128.147C62.9349 127.935 62.866 127.695 62.8604 127.449C62.8548 127.202 62.9127 126.959 63.0285 126.742C63.1443 126.524 63.3141 126.341 63.5215 126.208L70.9607 121.448L104.955 100.717C105.167 100.59 105.342 100.411 105.464 100.196C105.586 99.9818 105.65 99.7394 105.651 99.4926V85.9156C105.656 85.664 105.594 85.4156 105.472 85.1956C105.35 84.9756 105.171 84.7918 104.955 84.663L98.7827 81.1835C98.5641 81.0597 98.317 80.9952 98.0658 80.9965C97.8146 80.9977 97.5681 81.0646 97.3508 81.1905C97.1334 81.3164 96.9528 81.497 96.8268 81.7142C96.7007 81.9315 96.6337 82.178 96.6324 82.4291V95.6095C96.6337 95.8645 96.5666 96.1152 96.4381 96.3355C96.3095 96.5558 96.1243 96.7377 95.9017 96.8621L61.6287 115.93L52.1923 121.198C51.9794 121.316 51.7399 121.378 51.4964 121.378C51.2529 121.378 51.0134 121.316 50.8005 121.198L30.4524 109.444C30.2383 109.315 30.0615 109.132 29.9394 108.913C29.8174 108.695 29.7544 108.448 29.7565 108.198V99.8475C29.7638 99.5964 29.7029 99.348 29.5804 99.1287C29.4579 98.9094 29.2783 98.7273 29.0606 98.6018L23.5839 95.4842C23.3648 95.3601 23.1171 95.2957 22.8653 95.2972C22.6135 95.2987 22.3666 95.3662 22.149 95.493C21.9315 95.6197 21.7509 95.8012 21.6254 96.0195C21.4999 96.2377 21.4338 96.485 21.4336 96.7368V113.64C21.4326 113.889 21.4962 114.134 21.6182 114.351C21.7402 114.568 21.9163 114.75 22.1295 114.879L75.5049 145.721C75.735 145.853 75.9971 145.919 76.2623 145.912C76.5276 145.905 76.7856 145.824 77.008 145.679Z" fill="#9B1C22"/>
<path d="M76.2213 146.612C75.8466 146.612 75.4788 146.511 75.1566 146.319L21.7533 115.519C21.4288 115.332 21.159 115.064 20.9709 114.74C20.7828 114.417 20.6831 114.049 20.6816 113.675V96.7298C20.6811 96.3564 20.7788 95.9895 20.9648 95.6658C21.1509 95.3421 21.4188 95.073 21.7416 94.8854C22.0645 94.6979 22.431 94.5986 22.8043 94.5974C23.1777 94.5962 23.5448 94.6932 23.8689 94.8787L29.3525 97.9894C29.6786 98.176 29.9494 98.4455 30.1377 98.7706C30.3259 99.0957 30.4247 99.4648 30.4242 99.8405V108.191C30.4254 108.322 30.4607 108.449 30.5266 108.562C30.5926 108.674 30.6868 108.767 30.8 108.831L51.1272 120.578C51.2348 120.634 51.3541 120.663 51.4751 120.663C51.5962 120.663 51.7155 120.634 51.8231 120.578L95.4281 96.2218C95.5432 96.1578 95.6389 96.0639 95.7051 95.95C95.7712 95.836 95.8054 95.7063 95.8038 95.5746V82.4013C95.8054 82.0287 95.9044 81.663 96.0909 81.3405C96.2775 81.0181 96.5451 80.75 96.8673 80.5628C97.1894 80.3757 97.5549 80.2761 97.9275 80.2739C98.3 80.2717 98.6667 80.3669 98.9911 80.5502L105.171 84.0297C105.496 84.2185 105.767 84.4895 105.955 84.8155C106.143 85.1416 106.242 85.5113 106.242 85.8877V99.5134C106.241 99.8775 106.147 100.235 105.97 100.553C105.792 100.871 105.536 101.138 105.226 101.33L71.2317 122.067L63.8065 126.813C63.6998 126.882 63.6124 126.977 63.5527 127.089C63.493 127.201 63.463 127.327 63.4655 127.454C63.469 127.581 63.5046 127.705 63.5691 127.814C63.6336 127.924 63.7249 128.015 63.8343 128.08L75.8525 135.004C75.9595 135.061 76.079 135.091 76.2004 135.091C76.3218 135.091 76.4413 135.061 76.5484 135.004L85.2262 130.133C85.5455 129.956 85.9048 129.863 86.2701 129.863C86.6353 129.863 86.9946 129.956 87.3139 130.133L92.1086 132.917C92.4217 133.1 92.6829 133.36 92.8676 133.673C93.0522 133.985 93.1542 134.339 93.164 134.702C93.1737 135.065 93.0909 135.424 92.9233 135.746C92.7557 136.068 92.5089 136.342 92.2061 136.542L77.3417 146.25C77.0107 146.476 76.6217 146.601 76.2213 146.612ZM22.8181 95.9643C22.6858 95.9658 22.5563 96.0017 22.4423 96.0687C22.3269 96.13 22.2311 96.2226 22.1659 96.3358C22.1006 96.449 22.0686 96.5783 22.0734 96.7089V113.64C22.0744 113.769 22.1097 113.896 22.1757 114.008C22.2418 114.119 22.3361 114.211 22.4492 114.273L75.8525 145.116C75.9686 145.187 76.1023 145.225 76.2387 145.225C76.375 145.225 76.5087 145.187 76.6249 145.116L91.4893 135.408C91.5955 135.339 91.6825 135.244 91.7421 135.132C91.8018 135.02 91.8321 134.894 91.8303 134.768C91.8262 134.641 91.7895 134.517 91.7236 134.409C91.6578 134.3 91.5651 134.21 91.4545 134.148L86.6667 131.365C86.5548 131.303 86.4291 131.271 86.3014 131.271C86.1736 131.271 86.048 131.303 85.936 131.365L77.2582 136.236C76.9392 136.415 76.5798 136.508 76.2143 136.508C75.8488 136.508 75.4894 136.415 75.1705 136.236L63.1871 129.319C62.8701 129.136 62.6055 128.875 62.4188 128.56C62.2321 128.246 62.1297 127.888 62.1213 127.522C62.1129 127.157 62.1988 126.795 62.3709 126.472C62.543 126.149 62.7953 125.876 63.1036 125.679L70.5428 120.919L104.551 100.181C104.658 100.114 104.746 100.021 104.807 99.9099C104.868 99.7991 104.9 99.6746 104.899 99.5482V85.9155C104.901 85.7846 104.867 85.6557 104.803 85.542C104.738 85.4282 104.644 85.3338 104.53 85.2684L98.3508 81.7889C98.2386 81.7241 98.1113 81.69 97.9817 81.69C97.8521 81.6901 97.7248 81.7243 97.6126 81.7892C97.5004 81.8541 97.4073 81.9474 97.3427 82.0598C97.278 82.1721 97.2441 82.2995 97.2444 82.4291V95.6094C97.2445 95.9885 97.1441 96.3609 96.9534 96.6885C96.7627 97.0161 96.4885 97.2873 96.1588 97.4744L52.5399 121.782C52.2201 121.958 51.861 122.051 51.496 122.051C51.131 122.051 50.7719 121.958 50.4522 121.782L30.1041 110.042C29.7791 109.856 29.5089 109.588 29.3207 109.264C29.1326 108.94 29.0331 108.573 29.0324 108.198V99.8474C29.0373 99.7168 29.0052 99.5875 28.94 99.4743C28.8748 99.3611 28.779 99.2685 28.6636 99.2072L23.1799 96.0339C23.067 95.9808 22.9426 95.9568 22.8181 95.9643Z" fill="#9B1C22"/>
<path d="M73.617 21.872L58.7526 31.6146C58.5471 31.7481 58.3792 31.9321 58.2651 32.149C58.1509 32.3659 58.0943 32.6084 58.1006 32.8534C58.1069 33.0984 58.1759 33.3377 58.301 33.5485C58.4261 33.7592 58.6031 33.9344 58.8152 34.0572L63.61 36.8408C63.8229 36.959 64.0624 37.021 64.3059 37.021C64.5494 37.021 64.7889 36.959 65.0018 36.8408L73.6727 31.9695C73.8855 31.8513 74.125 31.7893 74.3686 31.7893C74.6121 31.7893 74.8516 31.8513 75.0645 31.9695L87.0478 38.8867C87.261 39.0107 87.4388 39.1873 87.5641 39.3996C87.6895 39.6119 87.7583 39.8529 87.7639 40.0994C87.7695 40.3459 87.7117 40.5898 87.596 40.8075C87.4804 41.0253 87.3108 41.2098 87.1035 41.3433L79.6643 46.0963L45.7254 66.8062C45.5151 66.9347 45.341 67.1145 45.2193 67.3287C45.0975 67.5429 45.0322 67.7846 45.0295 68.031V81.4896C45.0254 81.7411 45.0875 81.9893 45.2097 82.2091C45.3318 82.429 45.5097 82.6129 45.7254 82.7423L52.5939 86.6462C52.812 86.7705 53.0588 86.8354 53.3098 86.8343C53.5608 86.8332 53.807 86.7663 54.024 86.6402C54.241 86.5141 54.4211 86.3332 54.5463 86.1157C54.6714 85.8981 54.7373 85.6516 54.7373 85.4006V71.8375C54.7374 71.5819 54.8058 71.331 54.9355 71.1108C55.0652 70.8905 55.2515 70.709 55.4749 70.5849L89.2886 51.6982L98.6137 46.486C98.8252 46.3638 99.0652 46.2995 99.3096 46.2995C99.5539 46.2995 99.7939 46.3638 100.005 46.486L120.11 58.1005C120.326 58.2254 120.505 58.4064 120.628 58.6244C120.75 58.8423 120.812 59.0893 120.806 59.3392V68.4555C120.806 68.7033 120.87 68.9469 120.992 69.1626C121.114 69.3784 121.29 69.5591 121.502 69.6872L126.985 72.951C127.203 73.0802 127.452 73.1492 127.705 73.1511C127.959 73.153 128.208 73.0877 128.428 72.9618C128.648 72.8359 128.831 72.6539 128.958 72.4344C129.084 72.2149 129.151 71.9657 129.15 71.7123V53.9112C129.153 53.6609 129.09 53.4142 128.968 53.1956C128.846 52.9771 128.668 52.7943 128.454 52.6655L75.1549 21.8303C74.9214 21.6895 74.6524 21.6187 74.3798 21.6261C74.1073 21.6335 73.8425 21.7188 73.617 21.872Z" fill="#9B1C22"/>
<path d="M53.3467 87.5301C52.978 87.5317 52.6155 87.4357 52.2959 87.2517L45.4204 83.3477C45.094 83.1592 44.8226 82.8885 44.6334 82.5625C44.4441 82.2365 44.3436 81.8666 44.3418 81.4897V68.0449C44.3443 67.6803 44.4395 67.3223 44.6185 67.0045C44.7974 66.6868 45.0542 66.4198 45.3648 66.2286L79.3316 45.4978L86.7568 40.7448C86.8648 40.679 86.954 40.5865 87.0159 40.4762C87.0779 40.3659 87.1104 40.2415 87.1104 40.115C87.1104 39.9886 87.0779 39.8642 87.0159 39.7539C86.954 39.6436 86.8648 39.5511 86.7568 39.4853L74.7734 32.568C74.6664 32.5108 74.5469 32.4808 74.4255 32.4808C74.3041 32.4808 74.1846 32.5108 74.0775 32.568L65.3997 37.4393C65.0823 37.6225 64.7223 37.719 64.3558 37.719C63.9894 37.719 63.6294 37.6225 63.312 37.4393L58.5172 34.6557C58.2042 34.4713 57.9432 34.2104 57.7587 33.8974C57.5742 33.5844 57.4722 33.2296 57.4625 32.8664C57.4528 32.5032 57.5355 32.1435 57.703 31.8211C57.8704 31.4986 58.1171 31.2241 58.4198 31.0231L73.2842 21.3154C73.6123 21.0943 73.9965 20.9711 74.392 20.96C74.7875 20.9489 75.178 21.0504 75.518 21.2527L128.921 52.0949C129.248 52.2785 129.519 52.5466 129.706 52.871C129.894 53.1955 129.99 53.5644 129.986 53.9391V71.7541C129.988 72.1306 129.89 72.5009 129.701 72.8269C129.513 73.1529 129.241 73.4229 128.914 73.6091C128.586 73.7954 128.215 73.8913 127.839 73.8869C127.462 73.8826 127.094 73.7781 126.771 73.5843L121.239 70.2857C120.922 70.0964 120.659 69.8284 120.476 69.5077C120.293 69.1871 120.196 68.8246 120.195 68.4555V59.3531C120.195 59.2234 120.161 59.0959 120.096 58.9835C120.031 58.8711 119.938 58.7778 119.826 58.7129L99.7214 47.0984C99.6094 47.0369 99.4838 47.0046 99.356 47.0046C99.2283 47.0046 99.1026 47.0369 98.9907 47.0984L55.845 71.1904C55.729 71.254 55.6323 71.3477 55.565 71.4615C55.4976 71.5754 55.4622 71.7053 55.4622 71.8376V85.4006C55.466 85.7734 55.3699 86.1404 55.1839 86.4635C54.9979 86.7865 54.7288 87.0539 54.4045 87.2378C54.0836 87.4263 53.7188 87.5271 53.3467 87.5301ZM74.4046 31.0788C74.7787 31.0768 75.1464 31.1754 75.4693 31.3641L87.4527 38.2744C87.7697 38.457 88.0343 38.7183 88.221 39.0329C88.4077 39.3475 88.5101 39.7049 88.5185 40.0707C88.5269 40.4364 88.4409 40.7982 88.2689 41.121C88.0968 41.4439 87.8445 41.717 87.5362 41.9139L80.097 46.6739L46.0885 67.4186C45.9817 67.485 45.8932 67.5771 45.8312 67.6865C45.7692 67.7959 45.7356 67.9192 45.7336 68.0449V81.4897C45.7335 81.6211 45.7683 81.7502 45.8343 81.8639C45.9003 81.9776 45.9952 82.0718 46.1094 82.1369L52.9849 86.0408C53.0968 86.1063 53.224 86.1408 53.3537 86.1408C53.4833 86.1408 53.6106 86.1063 53.7225 86.0408C53.8355 85.9791 53.9292 85.8872 53.993 85.7754C54.0569 85.6636 54.0885 85.5363 54.0844 85.4076V71.8376C54.0854 71.4588 54.1872 71.0871 54.3791 70.7607C54.5711 70.4342 54.8465 70.1646 55.1769 69.9795L98.3226 45.8806C98.642 45.7032 99.0012 45.6102 99.3665 45.6102C99.7317 45.6102 100.091 45.7032 100.41 45.8806L120.515 57.4951C120.841 57.6787 121.113 57.9467 121.3 58.2712C121.487 58.5957 121.584 58.9646 121.58 59.3392V68.4555C121.58 68.5832 121.614 68.7086 121.678 68.8195C121.741 68.9304 121.832 69.0231 121.941 69.0888L127.425 72.3525C127.537 72.4191 127.666 72.4546 127.796 72.4554C127.927 72.4563 128.055 72.4224 128.169 72.3573C128.282 72.2921 128.376 72.1981 128.441 72.0848C128.506 71.9715 128.539 71.8429 128.539 71.7123V53.9112C128.539 53.7815 128.505 53.654 128.44 53.5416C128.375 53.4292 128.282 53.3359 128.17 53.271L74.7734 22.4288C74.6572 22.3574 74.5236 22.3196 74.3872 22.3196C74.2508 22.3196 74.1171 22.3574 74.001 22.4288L59.1505 32.1644C59.0461 32.2334 58.9608 32.3276 58.9024 32.4383C58.844 32.5489 58.8145 32.6726 58.8165 32.7977C58.8184 32.9182 58.8499 33.0364 58.9082 33.142C58.9664 33.2475 59.0496 33.3372 59.1505 33.4031L63.9452 36.1867C64.0523 36.244 64.1718 36.2739 64.2932 36.2739C64.4146 36.2739 64.5341 36.244 64.6411 36.1867L73.319 31.3154C73.6541 31.1434 74.0283 31.0619 74.4046 31.0788Z" fill="#9B1C22"/>
<path d="M85.6376 123.174L99.0127 130.898C99.2256 131.017 99.4651 131.079 99.7086 131.079C99.9521 131.079 100.192 131.017 100.405 130.898L128.484 115.213C128.707 115.088 128.892 114.907 129.02 114.686C129.149 114.466 129.216 114.215 129.215 113.96V82.0394C129.218 81.7891 129.155 81.5424 129.033 81.3238C128.911 81.1053 128.733 80.9225 128.519 80.7937L90.5228 58.8799C90.3099 58.7617 90.0704 58.6996 89.8269 58.6996C89.5834 58.6996 89.3439 58.7617 89.131 58.8799L83.7517 61.8862C83.5301 62.0109 83.3457 62.1923 83.2174 62.4119C83.0891 62.6314 83.0215 62.881 83.0215 63.1353C83.0215 63.3896 83.0891 63.6392 83.2174 63.8587C83.3457 64.0783 83.5301 64.2597 83.7517 64.3844L120.224 85.4423C120.438 85.5711 120.616 85.7539 120.738 85.9724C120.86 86.191 120.922 86.4377 120.92 86.688V110.62C120.924 110.876 120.857 111.129 120.727 111.35C120.597 111.571 120.408 111.752 120.182 111.873L100.335 122.847C100.11 122.97 99.8554 123.031 99.5986 123.024C99.3417 123.017 99.0915 122.941 98.8735 122.805L91.4205 118.129C91.1942 117.99 90.9341 117.917 90.6689 117.917C90.4037 117.917 90.1436 117.99 89.9173 118.129L85.5958 120.697C85.3813 120.826 85.2045 121.01 85.0832 121.23C84.9619 121.449 84.9003 121.696 84.9045 121.947C84.9087 122.198 84.9787 122.443 85.1073 122.658C85.2359 122.874 85.4188 123.051 85.6376 123.174Z" fill="#E0E0E0"/>
<path d="M99.7296 131.775C99.3556 131.777 98.9878 131.679 98.6649 131.49L85.2897 123.765C84.9687 123.581 84.7014 123.316 84.5141 122.996C84.3268 122.677 84.2261 122.314 84.2219 121.944C84.2177 121.573 84.3101 121.208 84.4901 120.885C84.67 120.561 84.9312 120.29 85.248 120.098L89.5277 117.509C89.8619 117.298 90.2492 117.185 90.6447 117.185C91.0401 117.185 91.4275 117.298 91.7616 117.509L99.2147 122.193C99.3287 122.259 99.4584 122.295 99.5904 122.295C99.7225 122.295 99.8522 122.259 99.9662 122.193L119.82 111.225C119.934 111.16 120.029 111.066 120.095 110.952C120.161 110.839 120.196 110.71 120.196 110.578V86.6741C120.196 86.5444 120.162 86.4169 120.098 86.3045C120.033 86.1921 119.94 86.0987 119.827 86.0339L83.3551 64.976C83.0283 64.7891 82.7567 64.5191 82.5677 64.1934C82.3788 63.8678 82.2793 63.4979 82.2793 63.1214C82.2793 62.7449 82.3788 62.3751 82.5677 62.0494C82.7567 61.7237 83.0283 61.4538 83.3551 61.2669L88.7344 58.2606C89.0531 58.0813 89.4126 57.9872 89.7783 57.9872C90.1439 57.9872 90.5034 58.0813 90.8221 58.2606L128.825 80.1814C129.152 80.3649 129.423 80.633 129.61 80.9575C129.798 81.282 129.894 81.6509 129.89 82.0255V113.946C129.89 114.325 129.79 114.698 129.599 115.025C129.408 115.353 129.134 115.624 128.804 115.811L100.773 131.525C100.452 131.693 100.093 131.78 99.7296 131.775ZM90.6342 118.553C90.497 118.557 90.3628 118.595 90.2445 118.665L85.9717 121.253C85.8622 121.32 85.7717 121.413 85.7089 121.525C85.6461 121.636 85.6131 121.762 85.6131 121.89C85.6131 122.018 85.6461 122.144 85.7089 122.255C85.7717 122.367 85.8622 122.46 85.9717 122.527L99.3469 130.251C99.4582 130.315 99.5841 130.348 99.7122 130.348C99.8403 130.348 99.9663 130.315 100.078 130.251L128.157 114.566C128.272 114.502 128.368 114.408 128.434 114.294C128.5 114.18 128.534 114.05 128.533 113.919V82.0394C128.533 81.9097 128.499 81.7822 128.434 81.6698C128.37 81.5574 128.276 81.4641 128.164 81.3992L90.161 59.4784C90.0491 59.4169 89.9234 59.3846 89.7957 59.3846C89.6679 59.3846 89.5423 59.4169 89.4303 59.4784L84.0441 62.4916C83.9313 62.5562 83.8375 62.6494 83.7723 62.7618C83.7071 62.8743 83.6728 63.0019 83.6728 63.1319C83.6728 63.2618 83.7071 63.3895 83.7723 63.5019C83.8375 63.6143 83.9313 63.7075 84.0441 63.7721L120.516 84.8369C120.843 85.0205 121.114 85.2886 121.301 85.613C121.489 85.9375 121.585 86.3064 121.581 86.6811V110.613C121.581 110.994 121.479 111.368 121.286 111.696C121.092 112.024 120.815 112.294 120.481 112.478L100.634 123.445C100.301 123.63 99.9251 123.722 99.5446 123.712C99.1641 123.702 98.7931 123.591 98.47 123.39L91.017 118.713C90.9045 118.635 90.7714 118.591 90.6342 118.588V118.553Z" fill="#E0E0E0"/>
<path d="M64.989 44.3635L51.6138 36.639C51.4009 36.5208 51.1614 36.4588 50.9179 36.4588C50.6744 36.4588 50.4349 36.5208 50.222 36.639L22.1147 52.3176C21.8891 52.4428 21.7016 52.6266 21.5717 52.8495C21.4419 53.0724 21.3746 53.3262 21.377 53.5842V85.505C21.3748 85.7552 21.4379 86.0016 21.5599 86.2201C21.6819 86.4385 21.8587 86.6214 22.0729 86.7507L60.0759 108.664C60.2888 108.783 60.5283 108.845 60.7718 108.845C61.0153 108.845 61.2548 108.783 61.4677 108.664L66.847 105.658C67.0686 105.533 67.2529 105.352 67.3813 105.133C67.5096 104.913 67.5772 104.663 67.5772 104.409C67.5772 104.155 67.5096 103.905 67.3813 103.686C67.2529 103.466 67.0686 103.285 66.847 103.16L30.4515 82.116C30.2373 81.9867 30.0605 81.8038 29.9385 81.5854C29.8165 81.367 29.7535 81.1205 29.7556 80.8703V56.9245C29.7529 56.6708 29.8179 56.421 29.9439 56.2008C30.0699 55.9807 30.2523 55.7981 30.4724 55.6719L50.3194 44.6975C50.5448 44.5742 50.7989 44.513 51.0558 44.5204C51.3126 44.5277 51.5628 44.6033 51.7808 44.7393L59.2339 49.4088C59.4601 49.5472 59.7202 49.6204 59.9854 49.6204C60.2507 49.6204 60.5107 49.5472 60.737 49.4088L65.0168 46.8131C65.2256 46.6828 65.3974 46.501 65.5155 46.2851C65.6337 46.0692 65.6943 45.8266 65.6915 45.5805C65.6887 45.3344 65.6226 45.0931 65.4996 44.88C65.3765 44.6669 65.2007 44.489 64.989 44.3635Z" fill="#E0E0E0"/>
<path d="M60.821 109.541C60.4473 109.541 60.0803 109.442 59.7563 109.256L21.7533 87.3352C21.4283 87.1492 21.1581 86.8808 20.97 86.557C20.7818 86.2332 20.6823 85.8656 20.6816 85.4911V53.5842C20.6829 53.2045 20.7847 52.832 20.9766 52.5044C21.1685 52.1768 21.4437 51.9059 21.7742 51.7191L49.8537 36.0197C50.173 35.8424 50.5323 35.7493 50.8975 35.7493C51.2628 35.7493 51.622 35.8424 51.9414 36.0197L65.3165 43.7442C65.6454 43.9224 65.9215 44.184 66.117 44.5028C66.3126 44.8216 66.4208 45.1863 66.4307 45.5601C66.4406 45.934 66.3518 46.3039 66.1733 46.6326C65.9948 46.9612 65.7329 47.2371 65.414 47.4324L61.0994 50.0212C60.7653 50.2327 60.378 50.3451 59.9825 50.3451C59.587 50.3451 59.1997 50.2327 58.8656 50.0212L51.4125 45.3308C51.3004 45.2589 51.1699 45.2206 51.0367 45.2206C50.9035 45.2206 50.7731 45.2589 50.6609 45.3308L30.807 56.2773C30.691 56.3409 30.5943 56.4346 30.5269 56.5485C30.4596 56.6623 30.4241 56.7922 30.4242 56.9245V80.8564C30.4254 80.9867 30.4607 81.1143 30.5266 81.2267C30.5926 81.339 30.6868 81.4321 30.8 81.4966L67.272 102.555C67.5989 102.741 67.8705 103.011 68.0594 103.337C68.2484 103.663 68.3479 104.033 68.3479 104.409C68.3479 104.786 68.2484 105.155 68.0594 105.481C67.8705 105.807 67.5989 106.077 67.272 106.264L61.8649 109.256C61.5471 109.439 61.1877 109.537 60.821 109.541ZM50.8975 37.1679C50.7712 37.1666 50.6466 37.1977 50.5357 37.2584L22.4562 52.9231C22.3402 52.9867 22.2435 53.0804 22.1762 53.1942C22.1088 53.3081 22.0733 53.438 22.0734 53.5702V85.4911C22.0746 85.6213 22.1099 85.749 22.1759 85.8614C22.2418 85.9737 22.3361 86.0668 22.4492 86.1313L60.4522 108.052C60.5598 108.108 60.6791 108.137 60.8002 108.137C60.9212 108.137 61.0405 108.108 61.1481 108.052L66.5692 105.081C66.682 105.016 66.7757 104.923 66.8409 104.81C66.9061 104.698 66.9404 104.57 66.9404 104.44C66.9404 104.31 66.9061 104.183 66.8409 104.07C66.7757 103.958 66.682 103.865 66.5692 103.8L30.1041 82.7005C29.7791 82.5145 29.5089 82.2461 29.3207 81.9223C29.1326 81.5985 29.0331 81.2309 29.0324 80.8564V56.9245C29.0336 56.5431 29.1369 56.1691 29.3314 55.8411C29.526 55.5132 29.8048 55.2433 30.1389 55.0595L49.9859 44.0921C50.3189 43.9078 50.6951 43.8157 51.0756 43.8255C51.4561 43.8353 51.8271 43.9465 52.1502 44.1478L59.6032 48.8242C59.7176 48.9005 59.852 48.9412 59.9894 48.9412C60.1269 48.9412 60.2613 48.9005 60.3757 48.8242L64.6554 46.2355C64.7649 46.1691 64.8554 46.0757 64.9182 45.9641C64.981 45.8526 65.014 45.7267 65.014 45.5987C65.014 45.4707 64.981 45.3449 64.9182 45.2333C64.8554 45.1218 64.7649 45.0283 64.6554 44.962L51.2664 37.2445C51.1549 37.1783 51.0272 37.1445 50.8975 37.147V37.1679Z" fill="#E0E0E0"/>
</svg>
