<svg width="72" height="86" viewBox="0 0 72 86" fill="none" xmlns="http://www.w3.org/2000/svg">
<path d="M36.2174 30.5156C29.5326 30.5156 21.9565 26.5109 21.9565 16.4841C21.9565 5.56522 31.4638 2 36.2174 2C40.971 2 50.4783 4.89683 50.4783 16.4841C50.4783 26.5109 44.2391 30.5156 36.2174 30.5156ZM36.2174 30.5156C24.6304 30.5156 17.5 36.9391 17.5 48.3478V84M36.2174 30.5156C50.4783 30.5156 54.9348 38.0978 54.9348 48.3478V84H17.5M36.2174 30.5156C21.9913 29.7282 21.0797 18.2548 22.4022 12.6166M17.5 84H2.5V53.5652C2.5 43.8261 9.1087 38.3426 19 38.3426M17.5 84V46C17.5 42.5 19.9 38.5 19.9 38.5M19 38.3426C13.2935 38.3426 6.30435 34.9239 6.30435 26.3645C6.30435 17.0435 14.4203 14 18.4783 14C19.4693 14 20.7023 14.1475 22 14.5145C21.5 19.843 23.7 30.5 36.5 30.5C32.5 30.5 23.5 31.5 19.9 38.5M19 38.3426C6.85578 37.6704 5.55585 27.8761 6.68478 23.0629M19 38.3426L19.9 38.5M53.5 38.3426C59.2065 38.3426 66.1957 34.9239 66.1957 26.3645C66.1957 17.0435 58.0797 14 54.0217 14C53.0307 14 51.7977 14.1475 50.5 14.5145C51 19.843 48.8 30.5 36 30.5C40 30.5 49 31.5 52.6 38.5M53.5 38.3426C63.3913 38.3426 70 43.8261 70 53.5652V84H55V46C55 42.5 52.6 38.5 52.6 38.5M53.5 38.3426C65.6442 37.6704 66.9441 27.8761 65.8152 23.0629M53.5 38.3426L52.6 38.5" stroke="url(#gradient)" stroke-width="4"/>
<defs>
<linearGradient id="gradient" x1="46.3486" y1="14.5452" x2="8.25826" y2="34.3796" gradientUnits="userSpaceOnUse">
<stop stop-color="#730D12"/>
<stop offset="1" stop-color="#D8272F"/>
</linearGradient>
</defs>
</svg>
