<svg width="96" height="97" viewBox="0 0 96 97" fill="none" xmlns="http://www.w3.org/2000/svg">
<g clip-path="url(#clip0)">
<path d="M42.6071 19C43.7117 19 44.6071 18.1046 44.6071 17C44.6071 15.8954 43.7117 15 42.6071 15V19ZM31.7679 26C31.7679 27.1046 32.6633 28 33.7679 28C34.8724 28 35.7679 27.1046 35.7679 26H31.7679ZM42.6071 49C43.7117 49 44.6071 48.1046 44.6071 47C44.6071 45.8954 43.7117 45 42.6071 45V49ZM35.7679 38C35.7679 36.8954 34.8724 36 33.7679 36C32.6633 36 31.7679 36.8954 31.7679 38H35.7679ZM54.3929 45C53.2883 45 52.3929 45.8954 52.3929 47C52.3929 48.1046 53.2883 49 54.3929 49V45ZM65.2321 38C65.2321 36.8954 64.3367 36 63.2321 36C62.1276 36 61.2321 36.8954 61.2321 38H65.2321ZM54.3929 15C53.2883 15 52.3929 15.8954 52.3929 17C52.3929 18.1046 53.2883 19 54.3929 19V15ZM61.2321 26C61.2321 27.1046 62.1276 28 63.2321 28C64.3367 28 65.2321 27.1046 65.2321 26H61.2321ZM74.9 1H22.1V5H74.9V1ZM19 4V94H23V4H19ZM22.1 97H74.9V93H22.1V97ZM78 94V4H74V94H78ZM74.9 97C76.4284 97 78 95.832 78 94H74C74 93.2726 74.5866 93 74.9 93V97ZM19 94C19 95.832 20.5716 97 22.1 97V93C22.4134 93 23 93.2726 23 94H19ZM22.1 1C20.5716 1 19 2.16804 19 4H23C23 4.72739 22.4134 5 22.1 5V1ZM74.9 5C74.5866 5 74 4.72739 74 4H78C78 2.16804 76.4284 1 74.9 1V5ZM42.6071 15H34.75V19H42.6071V15ZM31.7679 18V26H35.7679V18H31.7679ZM34.75 15C33.0692 15 31.7679 16.3773 31.7679 18H35.7679C35.7679 18.5182 35.346 19 34.75 19V15ZM42.6071 45H34.75V49H42.6071V45ZM35.7679 46V38H31.7679V46H35.7679ZM34.75 45C35.346 45 35.7679 45.4818 35.7679 46H31.7679C31.7679 47.6227 33.0692 49 34.75 49V45ZM54.3929 49H62.25V45H54.3929V49ZM65.2321 46V38H61.2321V46H65.2321ZM62.25 49C63.9308 49 65.2321 47.6227 65.2321 46H61.2321C61.2321 45.4818 61.654 45 62.25 45V49ZM54.3929 19H62.25V15H54.3929V19ZM61.2321 18V26H65.2321V18H61.2321ZM62.25 19C61.654 19 61.2321 18.5182 61.2321 18H65.2321C65.2321 16.3773 63.9308 15 62.25 15V19ZM22.9643 81.5H74.0357V77.5H22.9643V81.5Z" fill="url(#gradient)"/>
</g>
<defs>
<linearGradient id="gradient" x1="56.7285" y1="17.0751" x2="22.2126" y2="30.128" gradientUnits="userSpaceOnUse">
<stop stop-color="#730D12"/>
<stop offset="1" stop-color="#D8272F"/>
</linearGradient>
<clipPath id="clip0">
<rect width="96" height="96" fill="white" transform="translate(0 0.771729)"/>
</clipPath>
</defs>
</svg>
