<svg width="360" height="120" viewBox="0 0 360 120" fill="none" xmlns="http://www.w3.org/2000/svg">
<path d="M4 33.707V86.418C4.00045 87.0066 4.15578 87.5847 4.45051 88.0942C4.74524 88.6037 5.16894 89.0267 5.67896 89.3205L51.3243 115.676C51.835 115.97 52.4141 116.125 53.0034 116.125C53.5928 116.125 54.1717 115.97 54.6824 115.676L100.328 89.3205C100.838 89.0267 101.261 88.6037 101.556 88.0942C101.851 87.5847 102.006 87.0066 102.007 86.418V33.707C102.006 33.1179 101.85 32.5393 101.555 32.029C101.261 31.5188 100.837 31.0948 100.328 30.7993L54.6824 4.44907C54.1717 4.15486 53.5928 4 53.0034 4C52.4141 4 51.835 4.15486 51.3243 4.44907L5.67896 30.7993C5.16924 31.0948 4.74591 31.5188 4.45129 32.029C4.15667 32.5393 4.00112 33.1179 4 33.707V33.707Z" stroke="white" stroke-width="6.75306" stroke-miterlimit="10"/>
<path d="M110.385 60.8146C110.385 39.708 126.587 24.883 148.679 24.883C162.126 24.883 172.73 29.7876 179.504 38.6539L164.875 51.7099C160.85 46.604 156.041 43.6592 149.854 43.6592C140.236 43.6592 133.753 50.3381 133.753 60.8411C133.753 71.3441 140.236 78.023 149.854 78.023C156.041 78.023 160.85 75.0781 164.875 69.9723L179.504 83.0335C172.73 91.8681 162.126 96.7779 148.679 96.7779C126.571 96.7515 110.385 81.9265 110.385 60.8146Z" fill="white"/>
<path d="M239.203 74.2836H201.894C203.483 78.4096 207.191 80.5706 212.694 80.5706C217.604 80.5706 220.353 79.2941 223.885 76.6405L235.474 88.3247C230.268 94.0184 222.71 96.9686 212.005 96.9686C192.271 96.9686 179.506 85.0885 179.506 69.0824C179.506 52.785 192.567 41.2969 209.945 41.2969C225.834 41.2969 239.5 50.9207 239.5 69.0824C239.5 70.6555 239.304 72.7158 239.203 74.2836ZM201.502 63.6906H218.78C217.9 59.1779 214.659 56.5244 210.141 56.5244C205.528 56.5244 202.387 59.1779 201.502 63.6906Z" fill="white"/>
<path d="M243.842 23.9667H266.087V97.0586H243.842V23.9667Z" fill="white"/>
<path d="M270.324 23.9667H292.57V97.0586H270.324V23.9667Z" fill="white"/>
<path d="M342.363 39.8562V42.8964C337.89 40.7909 333.006 39.7054 328.062 39.7185C310.838 39.7185 296.871 52.4884 296.871 68.235C296.871 83.9815 310.838 96.7514 328.062 96.7514C333.005 96.7613 337.889 95.676 342.363 93.5735V97.0586H359.841V39.8562H342.363ZM327.792 77.4615C322.967 77.4615 319.053 73.3143 319.053 68.1926C319.053 63.0709 322.967 58.9237 327.792 58.9237C332.617 58.9237 336.531 63.0761 336.531 68.1926C336.531 73.309 332.607 77.4615 327.792 77.4615Z" fill="white"/>
<path d="M53.9291 107.254L65.2424 99.8658C65.3986 99.7637 65.5259 99.6233 65.6124 99.458C65.6988 99.2926 65.7414 99.1079 65.7361 98.9214C65.7308 98.735 65.6778 98.5529 65.5821 98.3928C65.4864 98.2327 65.3512 98.0997 65.1895 98.0067L61.5454 95.8881C61.3834 95.7981 61.2011 95.7509 61.0158 95.7509C60.8305 95.7509 60.6482 95.7981 60.4861 95.8881L53.8814 99.5957C53.7204 99.6886 53.5377 99.7376 53.3517 99.7376C53.1658 99.7376 52.9831 99.6886 52.8221 99.5957L43.7015 94.3309C43.5393 94.2366 43.404 94.1022 43.3085 93.9406C43.2131 93.779 43.1607 93.5956 43.1565 93.408C43.1522 93.2203 43.1962 93.0348 43.2842 92.869C43.3722 92.7032 43.5013 92.5628 43.6591 92.4613L49.321 88.8437L75.1893 73.0601C75.3525 72.9659 75.4876 72.8298 75.5807 72.666C75.6738 72.5021 75.7216 72.3164 75.7189 72.1279V61.7679C75.7211 61.5774 75.6734 61.3896 75.5805 61.2233C75.4875 61.057 75.3527 60.9179 75.1893 60.8199L70.486 58.1716C70.3194 58.0785 70.1313 58.0304 69.9405 58.0323C69.7496 58.0341 69.5626 58.0857 69.3978 58.182C69.233 58.2783 69.0963 58.416 69.0011 58.5813C68.9058 58.7467 68.8553 58.9341 68.8547 59.125V69.1566C68.8551 69.3512 68.8033 69.5424 68.7045 69.7101C68.6058 69.8779 68.4637 70.016 68.2932 70.11L42.2821 84.6383L35.1053 88.6478C34.9431 88.7372 34.7609 88.7842 34.5756 88.7842C34.3904 88.7842 34.2082 88.7372 34.046 88.6478L18.5695 79.7072C18.4069 79.6097 18.2726 79.4714 18.1797 79.3061C18.0868 79.1408 18.0386 78.9541 18.0399 78.7645V72.3504C18.0415 72.16 17.9935 71.9724 17.9006 71.8062C17.8078 71.6399 17.6733 71.5007 17.5102 71.4023L13.3365 69.0347C13.1706 68.9402 12.9828 68.8908 12.7917 68.8916C12.6007 68.8924 12.4131 68.9434 12.248 69.0394C12.0828 69.1353 11.9459 69.273 11.8506 69.4386C11.7554 69.6041 11.7051 69.7918 11.7051 69.9828V82.8693C11.703 83.0598 11.7507 83.2475 11.8436 83.4139C11.9366 83.5802 12.0714 83.7193 12.2348 83.8173L52.8856 107.286C53.0482 107.369 53.2291 107.41 53.4115 107.404C53.5939 107.398 53.7719 107.347 53.9291 107.254Z" fill="white"/>
<path d="M53.3321 107.964C53.0477 107.964 52.7683 107.889 52.5217 107.747L11.8709 84.2728C11.6249 84.1302 11.4206 83.9255 11.2784 83.6792C11.1362 83.4329 11.0611 83.1536 11.0605 82.8692V69.9828C11.0617 69.6993 11.1371 69.4209 11.2791 69.1755C11.4211 68.93 11.6248 68.726 11.87 68.5836C12.1152 68.4412 12.3934 68.3654 12.6769 68.3637C12.9605 68.362 13.2395 68.4345 13.4864 68.5739L17.6548 70.9415C17.9043 71.0824 18.1118 71.2872 18.2561 71.5347C18.4004 71.7823 18.4761 72.0638 18.4757 72.3503V78.7326C18.473 78.8311 18.4978 78.9284 18.5474 79.0136C18.597 79.0987 18.6694 79.1684 18.7564 79.2146L34.2328 88.1552C34.3175 88.2035 34.4134 88.2289 34.511 88.2289C34.6085 88.2289 34.7043 88.2035 34.789 88.1552L67.9771 69.6173C68.0636 69.5674 68.1354 69.4956 68.1856 69.4092C68.2358 69.3228 68.2625 69.2247 68.263 69.1248V59.0985C68.2632 58.8145 68.3379 58.5355 68.4795 58.2893C68.6212 58.0431 68.8248 57.8383 69.0701 57.6953C69.3155 57.5522 69.594 57.476 69.878 57.474C70.162 57.4721 70.4415 57.5446 70.6888 57.6843L75.3869 60.359C75.6364 60.5 75.8439 60.7047 75.9882 60.9523C76.1324 61.1999 76.2081 61.4814 76.2077 61.7679V72.1067C76.2072 72.3852 76.1355 72.659 75.9992 72.9019C75.8629 73.1448 75.6666 73.3488 75.4292 73.4944L49.561 89.2727L43.9096 92.8849C43.8257 92.9345 43.7571 93.0061 43.7113 93.0921C43.6656 93.1781 43.6443 93.275 43.65 93.3722C43.6484 93.4698 43.6737 93.566 43.7232 93.6501C43.7728 93.7343 43.8446 93.8031 43.9308 93.8489L53.0514 99.1137C53.1328 99.1572 53.2238 99.18 53.3162 99.18C53.4086 99.18 53.4996 99.1572 53.581 99.1137L60.1805 95.4061C60.4235 95.2711 60.6969 95.2003 60.9749 95.2003C61.2529 95.2003 61.5264 95.2711 61.7694 95.4061L65.4135 97.5247C65.6542 97.6631 65.8552 97.861 65.9975 98.0994C66.1397 98.3378 66.2184 98.6088 66.2258 98.8863C66.2333 99.1638 66.1693 99.4386 66.04 99.6843C65.9107 99.93 65.7205 100.138 65.4876 100.289L54.1743 107.678C53.9255 107.85 53.6339 107.949 53.3321 107.964ZM12.6972 69.4214C12.5973 69.4229 12.4992 69.4483 12.4112 69.4955C12.3257 69.5449 12.2547 69.6159 12.2055 69.7015C12.1562 69.787 12.1303 69.8841 12.1305 69.9828V82.8692C12.1303 82.968 12.1562 83.065 12.2055 83.1506C12.2547 83.2361 12.3257 83.3071 12.4112 83.3565L53.062 106.831C53.149 106.889 53.2513 106.92 53.3559 106.92C53.4605 106.92 53.5629 106.889 53.6499 106.831L64.9632 99.442C65.0454 99.3919 65.1134 99.3215 65.1606 99.2376C65.2077 99.1536 65.2325 99.059 65.2325 98.9627C65.2325 98.8664 65.2077 98.7718 65.1606 98.6878C65.1134 98.6039 65.0454 98.5335 64.9632 98.4834L61.3193 96.3648C61.2346 96.3165 61.1387 96.2911 61.0411 96.2911C60.9436 96.2911 60.8478 96.3165 60.7631 96.3648L54.1584 100.072C53.9168 100.212 53.6428 100.285 53.3639 100.285C53.085 100.285 52.811 100.212 52.5694 100.072L43.417 94.7599C43.1758 94.6209 42.9744 94.4221 42.8323 94.1826C42.6902 93.9432 42.6123 93.6711 42.6059 93.3928C42.5995 93.1144 42.6649 92.8391 42.7958 92.5933C42.9268 92.3476 43.1188 92.1398 43.3534 91.9898L49.0155 88.367L74.8942 72.5834C74.977 72.5332 75.0454 72.4624 75.0927 72.3779C75.14 72.2935 75.1647 72.1982 75.1643 72.1014V61.7679C75.1675 61.668 75.1424 61.5692 75.0918 61.4829C75.0412 61.3967 74.9671 61.3266 74.8783 61.2806L70.1804 58.6324C70.0943 58.5845 69.9972 58.5599 69.8987 58.561C69.8003 58.562 69.7038 58.5887 69.6188 58.6385C69.5338 58.6882 69.4631 58.7592 69.4139 58.8445C69.3647 58.9298 69.3386 59.0265 69.3382 59.1249V69.1565C69.3385 69.445 69.2615 69.7284 69.1152 69.977C68.969 70.2257 68.759 70.4307 68.5067 70.5707L35.3186 89.1085C35.0771 89.248 34.8031 89.3214 34.5242 89.3214C34.2452 89.3214 33.9712 89.248 33.7297 89.1085L18.2533 80.1733C18.0076 80.0302 17.8036 79.8255 17.6614 79.5793C17.5193 79.3331 17.4439 79.054 17.4429 78.7697V72.3503C17.4461 72.2504 17.4209 72.1516 17.3703 72.0654C17.3197 71.9792 17.2457 71.909 17.1568 71.8631L12.9886 69.4955C12.9006 69.4432 12.7994 69.4174 12.6972 69.4214Z" fill="white"/>
<path d="M51.3616 13.0241L40.0428 20.4128C39.8868 20.5155 39.7596 20.6564 39.6733 20.8221C39.587 20.9879 39.5445 21.1729 39.5498 21.3597C39.5551 21.5465 39.608 21.7288 39.7035 21.8894C39.7991 22.0499 39.9342 22.1834 40.0959 22.2771L43.7452 24.3957C43.9074 24.4852 44.0897 24.5322 44.2749 24.5322C44.4601 24.5322 44.6424 24.4852 44.8045 24.3957L51.4093 20.6882C51.5713 20.5982 51.7536 20.551 51.9389 20.551C52.1243 20.551 52.3066 20.5982 52.4686 20.6882L61.5839 25.9529C61.7462 26.0465 61.8816 26.1804 61.9771 26.3416C62.0727 26.5028 62.1252 26.6858 62.1294 26.8732C62.1337 27.0605 62.0896 27.2458 62.0014 27.4111C61.9133 27.5765 61.784 27.7164 61.6262 27.8173L55.9642 31.4401L30.0961 47.2184C29.935 47.3151 29.8016 47.4517 29.7088 47.615C29.616 47.7783 29.567 47.9628 29.5664 48.1506V58.3835C29.5648 58.5739 29.6127 58.7615 29.7056 58.9277C29.7985 59.094 29.9331 59.2331 30.0961 59.3316L35.329 62.3029C35.495 62.3975 35.6829 62.4469 35.8739 62.446C36.0649 62.4452 36.2524 62.3943 36.4175 62.2983C36.5827 62.2023 36.7198 62.0647 36.815 61.8991C36.9103 61.7335 36.9604 61.5459 36.9604 61.3548V51.0531C36.9621 50.8589 37.0148 50.6686 37.1133 50.5012C37.2119 50.3339 37.3528 50.1954 37.5218 50.0997L63.2575 35.725L70.3496 31.7632C70.5117 31.6732 70.694 31.626 70.8793 31.626C71.0646 31.626 71.2469 31.6732 71.409 31.7632L86.7105 40.6031C86.8731 40.7007 87.0075 40.8389 87.1004 41.0042C87.1933 41.1696 87.2414 41.3562 87.2402 41.5459V48.4843C87.2389 48.6739 87.2871 48.8606 87.38 49.0259C87.4729 49.1912 87.6072 49.3295 87.7698 49.4271L91.9436 51.9058C92.1091 52.0039 92.2977 52.0565 92.4902 52.0582C92.6826 52.0599 92.8721 52.0106 93.0393 51.9154C93.2066 51.8202 93.3457 51.6825 93.4425 51.5161C93.5394 51.3498 93.5905 51.1608 93.5907 50.9684V37.4093C93.592 37.2197 93.5438 37.033 93.4509 36.8677C93.358 36.7023 93.2237 36.5641 93.0611 36.4665L52.4156 12.9923C52.2514 12.9086 52.0687 12.8676 51.8845 12.8732C51.7003 12.8787 51.5204 12.9306 51.3616 13.0241Z" fill="white"/>
<path d="M35.9222 62.9808C35.641 62.9805 35.3651 62.9055 35.1224 62.7637L29.8893 59.7923C29.6399 59.6514 29.4323 59.4467 29.2881 59.1991C29.1438 58.9515 29.068 58.67 29.0684 58.3835V48.1506C29.0694 47.8721 29.1415 47.5986 29.2777 47.3557C29.414 47.1129 29.6098 46.9089 29.8469 46.7629L55.7152 30.9846L61.3665 27.3723C61.4504 27.3228 61.5191 27.2511 61.5649 27.1652C61.6107 27.0792 61.6318 26.9823 61.626 26.8851C61.6277 26.7874 61.6025 26.6913 61.553 26.6071C61.5035 26.523 61.4316 26.4542 61.3454 26.4084L52.23 21.1436C52.1482 21.1014 52.0573 21.0793 51.9652 21.0793C51.8731 21.0793 51.7823 21.1014 51.7004 21.1436L45.0956 24.8512C44.8526 24.9861 44.5792 25.057 44.3012 25.057C44.0232 25.057 43.7497 24.9861 43.5067 24.8512L39.8574 22.7326C39.6179 22.5939 39.4179 22.3962 39.2764 22.1583C39.135 21.9204 39.0568 21.6502 39.0494 21.3735C39.0419 21.0969 39.1056 20.8229 39.234 20.5778C39.3625 20.3326 39.5515 20.1244 39.7832 19.9731L51.0966 12.558C51.3469 12.3905 51.6396 12.2977 51.9406 12.2902C52.2416 12.2827 52.5385 12.3608 52.7968 12.5156L93.4423 35.9845C93.6879 36.1275 93.892 36.3323 94.0341 36.5785C94.1763 36.8247 94.2516 37.1038 94.2527 37.388V50.9524C94.253 51.2392 94.1772 51.5209 94.0331 51.7688C93.889 52.0167 93.6818 52.2219 93.4324 52.3635C93.1831 52.5051 92.9006 52.5781 92.6139 52.5749C92.3272 52.5717 92.0466 52.4925 91.8004 52.3454L87.632 49.8666C87.3897 49.7225 87.1891 49.5177 87.0499 49.2726C86.9106 49.0275 86.8374 48.7503 86.8375 48.4684V41.5299C86.8402 41.4314 86.8154 41.3341 86.7658 41.249C86.7162 41.1638 86.6438 41.0942 86.5568 41.0479L71.2552 32.208C71.1737 32.1645 71.0828 32.1417 70.9904 32.1417C70.898 32.1417 70.807 32.1645 70.7256 32.208L37.8871 50.5499C37.7973 50.5951 37.7223 50.6649 37.6707 50.7512C37.6191 50.8375 37.5931 50.9367 37.5958 51.0372V61.3919C37.5958 61.8222 37.4252 62.235 37.1214 62.5398C36.8176 62.8446 36.4054 63.0165 35.975 63.0179L35.9222 62.9808ZM51.9494 20.0102C52.2339 20.0107 52.5131 20.0855 52.7597 20.2273L61.8751 25.4921C62.1164 25.6311 62.3177 25.8299 62.4598 26.0694C62.6019 26.3088 62.6799 26.5808 62.6863 26.8592C62.6926 27.1376 62.6273 27.4129 62.4963 27.6586C62.3653 27.9044 62.1732 28.1122 61.9386 28.2621L56.2766 31.885L30.3978 47.6686C30.3157 47.7196 30.248 47.7905 30.2007 47.8748C30.1535 47.9591 30.1283 48.054 30.1277 48.1506V58.3835C30.1285 58.4826 30.1555 58.5798 30.2056 58.6653C30.2558 58.7508 30.3276 58.8216 30.4137 58.8707L35.6414 61.8421C35.7256 61.8947 35.8229 61.9226 35.9222 61.9226C36.0214 61.9226 36.1186 61.8947 36.2028 61.8421C36.2883 61.7927 36.3593 61.7217 36.4086 61.6361C36.4579 61.5506 36.4837 61.4535 36.4835 61.3548V51.0531C36.4832 50.7646 36.5602 50.4813 36.7064 50.2326C36.8527 49.9839 37.0628 49.7789 37.3151 49.6389L70.1535 31.297C70.3962 31.1611 70.6698 31.0897 70.948 31.0897C71.2262 31.0897 71.4997 31.1611 71.7425 31.297L87.0442 40.1316C87.2898 40.2747 87.4937 40.4795 87.6359 40.7257C87.778 40.9719 87.8534 41.2509 87.8544 41.5352V48.4737C87.8542 48.5718 87.8796 48.6683 87.9279 48.7537C87.9762 48.8391 88.0457 48.9105 88.1299 48.9609L92.3036 51.4397C92.3878 51.4923 92.485 51.5202 92.5843 51.5202C92.6836 51.5202 92.7809 51.4923 92.865 51.4397C92.9538 51.3938 93.0278 51.3236 93.0784 51.2374C93.129 51.1512 93.1541 51.0524 93.1509 50.9524V37.4092C93.1506 37.3106 93.1245 37.2138 93.0753 37.1283C93.0261 37.0429 92.9555 36.9717 92.8703 36.922L52.2247 13.4531C52.1355 13.3983 52.0329 13.3693 51.9282 13.3693C51.8235 13.3693 51.7208 13.3983 51.6316 13.4531L40.3182 20.8417C40.2372 20.894 40.1712 20.9663 40.1267 21.0518C40.0821 21.1372 40.0605 21.2327 40.0639 21.329C40.067 21.4249 40.0944 21.5185 40.1435 21.6009C40.1926 21.6834 40.2618 21.752 40.3447 21.8004L43.994 23.919C44.0757 23.9621 44.1666 23.9847 44.2589 23.9847C44.3512 23.9847 44.4421 23.9621 44.5237 23.919L51.1284 20.2114C51.3814 20.08 51.6647 20.0179 51.9494 20.0314V20.0102Z" fill="white"/>
<path d="M60.4933 90.1202L70.6785 95.9993C70.8407 96.0888 71.0229 96.1357 71.2081 96.1357C71.3934 96.1357 71.5756 96.0888 71.7378 95.9993L93.1093 84.061C93.2794 83.9665 93.421 83.8283 93.5197 83.6607C93.6184 83.4931 93.6705 83.3021 93.6706 83.1076V58.8177C93.6719 58.6281 93.6237 58.4414 93.5308 58.2761C93.438 58.1108 93.3036 57.9725 93.141 57.875L64.2114 41.1909C64.0504 41.098 63.8677 41.049 63.6818 41.049C63.4958 41.049 63.3132 41.098 63.1521 41.1909L59.0526 43.479C58.8839 43.5732 58.7433 43.7108 58.6454 43.8774C58.5476 44.0441 58.4961 44.2338 58.4961 44.4271C58.4961 44.6204 58.5476 44.8101 58.6454 44.9768C58.7433 45.1434 58.8839 45.281 59.0526 45.3752L86.7851 61.3919C86.9477 61.4894 87.0821 61.6277 87.175 61.793C87.2679 61.9583 87.3161 62.145 87.3148 62.3346V80.5494C87.3145 80.7446 87.2625 80.9362 87.1639 81.1047C87.0652 81.2731 86.9236 81.4123 86.7535 81.508L71.6425 89.8553C71.4724 89.9501 71.2801 89.9976 71.0854 89.993C70.8908 89.9883 70.7008 89.9317 70.5355 89.8289L64.8788 86.2855C64.706 86.1791 64.5071 86.1228 64.3042 86.1228C64.1012 86.1228 63.9023 86.1791 63.7295 86.2855L60.4774 88.2558C60.3182 88.3545 60.1871 88.4925 60.0967 88.6565C60.0063 88.8206 59.9596 89.0052 59.9612 89.1925C59.9628 89.3798 60.0126 89.5635 60.1057 89.726C60.1989 89.8885 60.3324 90.0242 60.4933 90.1202Z" fill="white"/>
<path d="M71.2226 96.6773C70.9382 96.6768 70.6588 96.6019 70.4123 96.4601L60.2271 90.581C59.9845 90.437 59.7835 90.2324 59.6439 89.9872C59.5043 89.7421 59.431 89.4648 59.431 89.1827C59.431 88.9006 59.5043 88.6234 59.6439 88.3782C59.7835 88.133 59.9845 87.9284 60.2271 87.7844L63.4844 85.8141C63.7387 85.6531 64.0336 85.5676 64.3346 85.5676C64.6356 85.5676 64.9304 85.6531 65.1847 85.8141L70.8572 89.3734C70.944 89.4241 71.0427 89.4509 71.1432 89.4509C71.2438 89.4509 71.3424 89.4241 71.4291 89.3734L86.5348 81.0208C86.6255 80.9752 86.7012 80.9046 86.7528 80.8172C86.8045 80.7299 86.8299 80.6296 86.8262 80.5282V62.3453C86.8288 62.2468 86.804 62.1495 86.7544 62.0643C86.7048 61.9792 86.6324 61.9095 86.5454 61.8633L58.7758 45.8307C58.5271 45.6884 58.3203 45.483 58.1765 45.2351C58.0327 44.9872 57.957 44.7057 57.957 44.4192C57.957 44.1326 58.0327 43.8511 58.1765 43.6033C58.3203 43.3554 58.5271 43.1499 58.7758 43.0077L62.8753 40.7196C63.1184 40.5846 63.3918 40.5138 63.6698 40.5138C63.9478 40.5138 64.2212 40.5846 64.4643 40.7196L93.3939 57.4036C93.6396 57.5467 93.8435 57.7514 93.9856 57.9976C94.1278 58.2438 94.2031 58.5229 94.2042 58.8072V83.1076C94.2045 83.3961 94.1276 83.6794 93.9814 83.9281C93.8351 84.1768 93.625 84.3818 93.3727 84.5218L72.0171 96.4707C71.775 96.608 71.501 96.6792 71.2226 96.6773ZM64.2948 86.6404C64.1923 86.6403 64.0918 86.6677 64.0035 86.7198L60.7461 88.6954C60.663 88.7453 60.5944 88.816 60.547 88.9005C60.4996 88.9851 60.4751 89.0805 60.476 89.1774C60.4733 89.2759 60.4982 89.3732 60.5477 89.4584C60.5973 89.5435 60.6697 89.6131 60.7567 89.6594L70.9578 95.5438C71.043 95.5907 71.1386 95.6152 71.2358 95.6152C71.333 95.6152 71.4288 95.5907 71.514 95.5438L92.8854 83.6055C92.9718 83.5568 93.0439 83.486 93.0942 83.4004C93.1444 83.3148 93.171 83.2175 93.1714 83.1182V58.8178C93.1716 58.719 93.1458 58.622 93.0965 58.5365C93.0472 58.4509 92.9762 58.3799 92.8907 58.3305L63.9611 41.6518C63.8764 41.6035 63.7805 41.5781 63.683 41.5781C63.5855 41.5781 63.4897 41.6035 63.405 41.6518L59.3055 43.9134C59.2167 43.9593 59.1427 44.0294 59.0921 44.1157C59.0415 44.2019 59.0163 44.3007 59.0194 44.4006C59.0147 44.5009 59.0387 44.6004 59.0884 44.6877C59.1381 44.7749 59.2115 44.8462 59.3002 44.8932L87.0592 60.9205C87.3048 61.0636 87.5089 61.2683 87.651 61.5145C87.7932 61.7607 87.8685 62.0398 87.8696 62.3241V80.5388C87.8732 80.8293 87.7972 81.1152 87.6496 81.3655C87.5021 81.6158 87.2887 81.8208 87.0328 81.9583L71.9271 90.3109C71.6732 90.4504 71.3866 90.5195 71.097 90.5112C70.8074 90.5028 70.5253 90.4172 70.2798 90.2632L64.602 86.7251C64.5098 86.6681 64.4031 86.6387 64.2948 86.6404Z" fill="white"/>
<path d="M44.783 30.1424L34.5978 24.2633C34.4367 24.1703 34.2541 24.1213 34.0681 24.1213C33.8822 24.1213 33.6995 24.1703 33.5385 24.2633L12.167 36.1963C11.9972 36.2912 11.8558 36.4295 11.7572 36.597C11.6585 36.7645 11.6061 36.9553 11.6055 37.1497V61.4501C11.6042 61.6397 11.6524 61.8264 11.7453 61.9917C11.8382 62.1571 11.9725 62.2953 12.1351 62.3929L41.0648 79.0769C41.2258 79.1699 41.4085 79.2189 41.5944 79.2189C41.7804 79.2189 41.9631 79.1699 42.1241 79.0769L46.2236 76.7888C46.391 76.6935 46.5301 76.5556 46.6269 76.3891C46.7237 76.2225 46.7746 76.0334 46.7746 75.8408C46.7746 75.6482 46.7237 75.459 46.6269 75.2925C46.5301 75.1259 46.391 74.988 46.2236 74.8927L18.4592 58.8601C18.2958 58.7621 18.1609 58.623 18.068 58.4567C17.9751 58.2903 17.9273 58.1026 17.9295 57.912V39.7026C17.9296 39.5074 17.9822 39.3159 18.082 39.1481C18.1817 38.9803 18.3248 38.8425 18.4963 38.7492L33.602 30.3966C33.7725 30.3027 33.9651 30.256 34.1598 30.2616C34.3544 30.2672 34.5441 30.3248 34.709 30.4284L40.3815 33.9877C40.5528 34.0983 40.7523 34.1571 40.9562 34.1571C41.16 34.1571 41.3596 34.0983 41.5308 33.9877L44.7883 32.0174C44.9504 31.9202 45.0845 31.7826 45.1775 31.618C45.2704 31.4533 45.319 31.2674 45.3184 31.0784C45.3179 30.8893 45.2683 30.7037 45.1744 30.5396C45.0805 30.3755 44.9457 30.2386 44.783 30.1424Z" fill="white"/>
<path d="M41.611 79.7496C41.3263 79.7511 41.0464 79.6761 40.8006 79.5325L11.8709 62.8537C11.6249 62.7098 11.4207 62.5041 11.2786 62.257C11.1364 62.0099 11.0612 61.7299 11.0605 61.4448V37.1497C11.0603 36.8612 11.1372 36.5779 11.2835 36.3292C11.4297 36.0805 11.6399 35.8755 11.8921 35.7355L33.2636 23.7866C33.5064 23.6507 33.7799 23.5793 34.0581 23.5793C34.3363 23.5793 34.6099 23.6507 34.8526 23.7866L45.0378 29.6657C45.2819 29.8067 45.4849 30.0089 45.6269 30.2523C45.769 30.4957 45.8451 30.772 45.8478 31.0538C45.8505 31.3356 45.7796 31.6133 45.6422 31.8594C45.5048 32.1054 45.3056 32.3114 45.0643 32.457L41.8122 34.4326C41.556 34.5911 41.2608 34.6751 40.9595 34.6751C40.6582 34.6751 40.3629 34.5911 40.1067 34.4326L34.4342 30.8733C34.3488 30.8186 34.2495 30.7895 34.1481 30.7895C34.0467 30.7895 33.9474 30.8186 33.8621 30.8733L18.7564 39.2206C18.6685 39.2695 18.5953 39.3409 18.5441 39.4275C18.4929 39.514 18.4656 39.6127 18.4651 39.7132V57.928C18.4649 58.0267 18.4908 58.1237 18.5401 58.2093C18.5894 58.2948 18.6603 58.3659 18.7458 58.4152L46.5102 74.4478C46.7582 74.5909 46.9638 74.7972 47.1061 75.0456C47.2484 75.294 47.3225 75.5757 47.3206 75.862C47.3218 76.1492 47.2452 76.4315 47.0987 76.6786C46.9523 76.9258 46.7416 77.1286 46.489 77.2655L42.3895 79.5589C42.1497 79.6856 41.8822 79.7511 41.611 79.7496ZM34.0528 24.6658C33.9562 24.6666 33.8614 24.6922 33.7774 24.74L12.4112 36.673C12.3233 36.7219 12.2501 36.7933 12.1989 36.8798C12.1477 36.9664 12.1203 37.065 12.1199 37.1656V61.4448C12.1208 61.5441 12.1471 61.6414 12.1963 61.7276C12.2454 61.8138 12.3157 61.886 12.4006 61.9374L41.3302 78.6162C41.4149 78.6645 41.5107 78.6899 41.6082 78.6899C41.7058 78.6899 41.8017 78.6645 41.8864 78.6162L45.9806 76.3281C46.0677 76.2796 46.1405 76.2091 46.1916 76.1235C46.2428 76.038 46.2704 75.9404 46.2718 75.8408C46.2735 75.7411 46.2484 75.6427 46.199 75.556C46.1496 75.4694 46.0779 75.3976 45.9912 75.3482L18.2268 59.3209C17.9807 59.177 17.7765 58.9713 17.6344 58.7242C17.4923 58.4771 17.417 58.1971 17.4164 57.9121V39.7026C17.4173 39.413 17.4953 39.1289 17.6424 38.8795C17.7895 38.63 18.0003 38.4242 18.2533 38.2832L33.3536 29.9359C33.6057 29.7935 33.8919 29.7227 34.1812 29.7311C34.4706 29.7395 34.7522 29.8268 34.9956 29.9835L40.6735 33.5428C40.7619 33.5971 40.8636 33.6259 40.9674 33.6259C41.0712 33.6259 41.1729 33.5971 41.2613 33.5428L44.5187 31.5672C44.6046 31.5191 44.6753 31.448 44.7231 31.3619C44.7708 31.2759 44.7936 31.1782 44.7889 31.0799C44.7881 30.9821 44.7618 30.8861 44.7126 30.8016C44.6633 30.717 44.5929 30.6468 44.5081 30.5979L34.3229 24.7188C34.24 24.6739 34.1472 24.6503 34.0528 24.6499V24.6658Z" fill="white"/>
</svg>
